<?xml version="1.0" encoding="UTF-8" standalone="no"?>
<svg
   xmlns:dc="http://purl.org/dc/elements/1.1/"
   xmlns:cc="http://creativecommons.org/ns#"
   xmlns:rdf="http://www.w3.org/1999/02/22-rdf-syntax-ns#"
   xmlns:svg="http://www.w3.org/2000/svg"
   xmlns="http://www.w3.org/2000/svg"
   xmlns:sodipodi="http://sodipodi.sourceforge.net/DTD/sodipodi-0.dtd"
   xmlns:inkscape="http://www.inkscape.org/namespaces/inkscape"
   version="1.1"
   width="512px"
   height="512px"
   viewBox="0 0 1 1"
   preserveAspectRatio="xMidYMid"
   id="svg2"
   inkscape:version="0.48.4 r9939"
   sodipodi:docname="bitcoinLogo_withShadow.svg">
  <metadata
     id="metadata22">
    <rdf:RDF>
      <cc:Work
         rdf:about="">
        <dc:format>image/svg+xml</dc:format>
        <dc:type
           rdf:resource="http://purl.org/dc/dcmitype/StillImage" />
        <dc:title></dc:title>
      </cc:Work>
    </rdf:RDF>
  </metadata>
  <sodipodi:namedview
     pagecolor="#ffffff"
     bordercolor="#666666"
     borderopacity="1"
     objecttolerance="10"
     gridtolerance="10"
     guidetolerance="10"
     inkscape:pageopacity="0"
     inkscape:pageshadow="2"
     inkscape:window-width="1123"
     inkscape:window-height="658"
     id="namedview20"
     showgrid="false"
     inkscape:zoom="0.65186406"
     inkscape:cx="256"
     inkscape:cy="256"
     inkscape:window-x="65"
     inkscape:window-y="24"
     inkscape:window-maximized="0"
     inkscape:current-layer="svg2" />
  <!-- Android launcher icons: viewBox="-0.045 -0.045 1.09 1.09" -->
  <defs
     id="defs4">
    <filter
       id="drop-shadow">
      <feGaussianBlur
         in="SourceAlpha"
         result="blur-out"
         stdDeviation="1"
         id="feGaussianBlur7" />
      <feBlend
         in="SourceGraphic"
         in2="blur-out"
         mode="normal"
         id="feBlend9" />
    </filter>
    <linearGradient
       id="coin-gradient"
       x1="-51.197094"
       y1="-51.198129"
       x2="-51.197094"
       y2="115.19385"
       gradientTransform="scale(0.99994167,1.0000583)"
       gradientUnits="userSpaceOnUse">
      <stop
         offset="0%"
         style="stop-color:#f9aa4b"
         id="stop12" />
      <stop
         offset="100%"
         style="stop-color:#f7931a"
         id="stop14" />
    </linearGradient>
    <filter
       id="filter3027"
       style="color-interpolation-filters:sRGB;"
       inkscape:label="Drop Shadow">
      <feFlood
         id="feFlood3029"
         flood-opacity="0.5"
         flood-color="rgb(0,0,0)"
         result="flood" />
      <feComposite
         id="feComposite3031"
         in2="SourceGraphic"
         in="flood"
         operator="in"
         result="composite1" />
      <feGaussianBlur
         id="feGaussianBlur3033"
         in="composite"
         stdDeviation="2"
         result="blur" />
      <feOffset
         id="feOffset3035"
         dx="4"
         dy="4"
         result="offset" />
      <feComposite
         id="feComposite3037"
         in2="offset"
         in="SourceGraphic"
         operator="over"
         result="fbSourceGraphic" />
      <feColorMatrix
         result="fbSourceGraphicAlpha"
         in="fbSourceGraphic"
         values="0 0 0 -1 0 0 0 0 -1 0 0 0 0 -1 0 0 0 0 1 0"
         id="feColorMatrix3051" />
      <feFlood
         id="feFlood3053"
         flood-opacity="0.5"
         flood-color="rgb(0,0,0)"
         result="flood"
         in="fbSourceGraphic" />
      <feComposite
         id="feComposite3055"
         in2="fbSourceGraphic"
         in="flood"
         operator="in"
         result="composite1" />
      <feGaussianBlur
         id="feGaussianBlur3057"
         in="composite"
         stdDeviation="2"
         result="blur" />
      <feOffset
         id="feOffset3059"
         dx="4"
         dy="4"
         result="offset" />
      <feComposite
         id="feComposite3061"
         in2="offset"
         in="fbSourceGraphic"
         operator="over"
         result="composite2" />
    </filter>
  </defs>
  <path
     inkscape:connector-curvature="0"
     style="fill:url(#coin-gradient);filter:url(#drop-shadow)"
     d="M 63.0359,39.741 C 58.7619,56.884 41.3989,67.317 24.2539,63.042 7.1159,58.768 -3.3171,41.404 0.9589,24.262 5.2309,7.117 22.5939,-3.317 39.7339,0.957 c 17.144,4.274 27.576,21.64 23.302,38.784 z"
     id="coin"
     transform="scale(0.015625,0.015625)" />
  <path
     inkscape:connector-curvature="0"
     style="fill:#ffffff;filter:url(#drop-shadow)"
     d="m 46.1009,27.441 c 0.637,-4.258 -2.605,-6.547 -7.038,-8.074 l 1.438,-5.768 -3.511,-0.875 -1.4,5.616 c -0.923,-0.23 -1.871,-0.447 -2.813,-0.662 l 1.41,-5.653 -3.509,-0.875 -1.439,5.766 c -0.764,-0.174 -1.514,-0.346 -2.242,-0.527 l 0.004,-0.018 -4.842,-1.209 -0.934,3.75 c 0,0 2.605,0.597 2.55,0.634 1.422,0.355 1.679,1.296 1.636,2.042 l -1.638,6.571 c 0.098,0.025 0.225,0.061 0.365,0.117 -0.117,-0.029 -0.242,-0.061 -0.371,-0.092 l -2.296,9.205 c -0.174,0.432 -0.615,1.08 -1.609,0.834 0.035,0.051 -2.552,-0.637 -2.552,-0.637 l -1.743,4.019 4.569,1.139 c 0.85,0.213 1.683,0.436 2.503,0.646 l -1.453,5.834 3.507,0.875 1.439,-5.772 c 0.958,0.26 2.159186,-9.805085 3.069186,-9.579085 4.73646,1.059294 5.372424,2.566271 11.332068,0.424356 C 44.183086,32.338186 45.6399,30.558 46.1009,27.441 z m -6.936,-0.063 c -0.99,3.966 -7.1,1.951 -9.082,1.457 l 1.748,-7.01 c 1.982,0.494 8.365,1.416 7.334,5.553 z"
     id="symbol"
     transform="scale(0.015625,0.015625)"
     sodipodi:nodetypes="cccccccccccccccccccccccccccccccccc" />
  <path
     style="fill:#000000;fill-opacity:1;stroke:#000000;stroke-width:3;stroke-linecap:round;stroke-linejoin:round;stroke-miterlimit:4;stroke-opacity:1;stroke-dasharray:none;stroke-dashoffset:0"
     id="path3021"
     d="m 198.48132,361.31448 c -0.064,-3.93343 0.96343,-7.65277 2.21507,-11.3361 1.73138,-4.68191 3.98706,-9.14267 5.93653,-13.73704 1.44615,-3.227 3.02895,-6.40617 4.90283,-9.4078 4.70404,-7.95953 -1.42237,-2.67651 21.78871,-10.84213 0.935,-0.32894 -0.056,5.7542 -0.0633,5.80027 -0.96855,5.61717 -2.6878,11.07479 -4.62714,16.42375 -1.05647,3.52732 -3.35792,7.1793 -2.94055,10.98313 -0.1739,1.85826 1.73766,-0.5513 1.31546,-0.33234 -6.23982,3.23602 -12.23676,6.92446 -18.45405,10.20354 -0.6311,0.33285 1.13264,-0.87033 1.66293,-1.34769 0.75849,-0.68277 1.46651,-1.4196 2.19977,-2.12941 7.78548,-7.0425 13.2466,-15.52291 18.13102,-24.70856 0.44419,-0.17227 3.92562,-8.77158 4.27847,-8.95142 20.88102,-10.6425 18.77593,-17.19658 20.95335,-8.51866 -0.16706,4.17022 -1.30125,8.28216 -2.66209,12.2098 -2.09612,5.36816 -4.10318,10.77204 -5.98013,16.22083 -3.10367,9.37668 -3.40485,6.63324 -21.11664,14.12316 -0.77506,0.32776 -0.74958,-1.52439 -0.9338,-2.3455 -0.19504,-0.86927 -0.17089,-5.3877 -0.17459,-5.86819 -0.13426,-10.90848 2.07951,-21.67332 4.26096,-32.30952 0.34297,-1.38957 0.66167,-2.78535 1.02892,-4.16871 0.2499,-0.94131 1.70698,-5.81414 1.95343,-5.9451 20.97064,-11.14343 18.95331,-17.52899 20.9556,-8.22556 -0.64313,5.43137 -2.34453,10.71512 -3.79071,15.98284 -1.27919,5.13511 -2.71916,10.24147 -3.69285,15.44632 -0.6966,3.94235 -0.81361,7.94662 -0.86836,11.93918 0.11974,3.62337 0.13976,0.58806 0.0197,0.64444 -6.47155,3.03864 -12.53565,6.88268 -18.89928,10.14127 -0.58138,0.29771 1.0445,-0.78934 1.51694,-1.24037 0.67167,-0.64123 1.27218,-1.35309 1.90827,-2.02963 4.84657,-5.44459 9.07805,-11.38933 13.61242,-17.08595 6.48103,-7.53971 12.01678,-8.87582 23.62375,-14.63201 0.44432,-0.22035 0.9745,0.29098 1.36047,0.60245 1.02923,0.83056 1.34659,1.84034 1.87528,2.97697 1.57197,5.6294 -0.26453,11.31327 -2.02559,16.65951 -2.12902,6.25346 -4.94382,12.23361 -7.32309,18.38943 -0.0864,0.33931 0.0624,1.15635 -0.25917,1.01792 -0.39004,-0.16789 -0.17927,-0.83015 -0.26891,-1.24522 -6.32759,3.25244 -12.56965,6.67697 -18.98278,9.75731 -0.7233,0.34742 1.26471,-0.99041 1.85717,-1.53157 1.45973,-1.33332 3.89275,-3.90253 5.19699,-5.25257 8.10696,-8.98926 16.40946,-17.82357 25.69087,-25.61243 8.86734,-6.60423 18.77859,-11.78413 28.7641,-16.46781 1.28227,-0.60145 4.16657,0.73252 5.10754,1.41073 0.79706,0.5745 1.40128,1.37762 2.10192,2.06644 4.1548,5.02668 5.63404,11.31349 6.57605,17.6105 0.5527,4.60588 -0.24237,9.10905 -1.4674,13.52968 -2.0426,7.58292 -0.16774,0.9648 -20.71274,9.4799 -0.35706,0.14799 0.51259,-0.58158 0.72811,-0.90243 0.40632,-0.60491 0.76702,-1.23945 1.13363,-1.86922 0.91231,-1.56718 2.36293,-4.22927 3.19198,-5.73549 4.43285,-8.14309 9.63688,-15.826 15.49468,-23.00357 2.26729,-2.74139 4.80193,-5.23909 7.2171,-7.84503 0.33873,-0.36548 0.5308,-0.92435 0.98845,-1.12153 0.19582,-0.0844 0.19847,0.38766 0.22327,0.59944 0.0877,0.74875 0.0743,1.50589 0.1114,2.25884 5.60375,-3.20454 11.20062,-6.42115 16.81126,-9.61363 1.46415,-0.83311 -2.90916,1.69953 -4.37171,2.53546 -8.19318,4.68286 -16.35767,9.41676 -24.59537,14.02087 -9.58065,5.35469 -19.6311,9.94143 -29.49178,14.74201 -22.25073,10.9952 -44.53183,21.96119 -66.54321,33.43216 -1.77102,0.95572 -7.05921,3.86757 -5.31305,2.86715 5.47765,-3.07935 10.95531,-6.1587 16.43297,-9.23805 -0.0451,-0.47627 -0.51614,-1.13949 -0.13515,-1.42882 1.22078,-0.92709 10.10571,-1.6414 10.10934,-1.64187 3.42866,-0.43818 6.85028,-0.92985 10.27541,-1.39478 34.17068,-5.53254 68.38653,-10.75893 102.60247,-15.99822 12.43035,-1.96113 24.85982,-3.94658 37.31337,-5.75758 0.58936,-0.0857 7.56709,-1.3148 8.70614,-0.66172 0.69883,0.40068 0.69916,1.45148 1.04875,2.17722 -7.22378,4.40299 -14.27344,9.10525 -21.67133,13.20896 -1.46552,0.81295 -3.20703,0.97466 -4.80552,1.47811 -2.09643,0.66028 -4.17719,1.37029 -6.27907,2.01302 -7.62157,2.33058 -15.36068,4.21037 -23.06029,6.25984 -6.05758,1.46814 -11.99513,3.36234 -18.00838,4.99208 -0.99275,0.26906 -1.98147,0.55723 -2.98639,0.7765 -0.41149,0.0898 -1.58947,0.40447 -1.2547,0.1489 6.44737,-4.92203 13.15036,-9.4999 19.72554,-14.24985 21.06056,-5.72116 42.33448,-10.59759 63.51223,-15.85728 14.51373,-3.57134 29.0215,-7.22356 43.34533,-11.5072 7.91905,-2.36825 15.62012,-4.9202 23.10877,-8.40041 -5.74883,3.17384 -11.49766,6.34769 -17.24648,9.52153 -0.31311,0.3203 -0.49226,0.93345 -0.93933,0.96089 -1.73416,0.10641 -3.45286,-0.3903 -5.17929,-0.58541 -2.94044,-0.33231 -5.87498,-0.72191 -8.82135,-0.99684 -10.83016,-1.0106 -16.08851,-1.17834 -27.36572,-1.79865 -32.76719,-1.72093 -65.58703,-1.0498 -98.3737,-1.85706 -1.54634,-3.0416 -9.05408,1.3997 -11.5391,-1.5832 -0.71543,-0.85878 -0.8404,-2.7377 0.0935,-3.35192 7.68377,-5.05377 16.0085,-9.13279 24.44727,-12.78902 2.78489,-1.2066 5.96086,-1.14731 8.94873,-1.68032 3.96637,-0.70757 7.94222,-1.36087 11.91333,-2.04131 25.58607,-3.90188 51.42055,-5.74314 77.19285,-7.92995 1.8277,-0.1805 3.65285,-0.389 5.48309,-0.54149 0.95567,-0.0796 1.92768,-0.31717 2.87279,-0.15467 0.43909,0.0755 1.40081,0.55615 1.04853,0.8289 -6.45881,5.0008 -13.24346,9.58364 -20.1435,13.95556 -0.9685,0.61365 -2.21222,0.60358 -3.31723,0.90938 -1.6653,0.46086 -3.32913,0.92705 -4.99369,1.39057 -17.29627,4.7547 -34.75765,8.869 -52.28771,12.66059 -7.56549,1.54923 -15.13978,3.04443 -22.78749,4.1288 -0.0367,0.005 -6.16025,0.91911 -6.81316,0.65106 -0.58817,-0.24147 -0.73243,-1.0395 -1.09865,-1.55925 7.08435,-4.32706 13.96469,-9.00737 21.25306,-12.98116 1.28685,-0.70162 2.86575,-0.61736 4.29376,-0.94756 2.05086,-0.47422 4.08923,-1.00191 6.14249,-1.46563 8.78824,-1.98482 17.59252,-3.39912 26.50706,-4.67964 7.56672,-0.85853 15.1514,-2.17003 22.79103,-2.23268 1.14222,-0.009 2.41434,-0.32218 3.4197,0.22002 0.7198,0.3882 1.73502,1.72006 1.07631,2.20472 -6.9513,5.11461 -14.79569,8.88857 -22.19354,13.33285 -23.1215,5.54524 -46.33284,10.63509 -69.37739,16.51055 -11.0972,3.04151 -22.3515,5.62017 -33.25839,9.32756 -1.79821,0.61123 -3.58407,1.27044 -5.3176,2.04636 -0.84522,0.37831 -3.16922,1.91558 -2.3959,1.40616 6.36221,-4.19108 12.77689,-8.30196 19.16534,-12.45295 1.04609,-0.0931 2.08843,-0.25061 3.13827,-0.27942 8.52778,-0.23397 17.07133,0.0577 25.60212,-0.25199 7.47128,-0.27121 14.20381,-0.84089 21.64549,-1.39466 6.73099,-0.5152 13.45237,-1.36589 20.19478,-1.74882 0.69474,-0.0395 1.58181,-0.47101 2.08756,0.007 0.71064,0.67155 1.6877,2.24612 0.88056,2.79795 -6.97571,4.76908 -14.92168,7.93488 -22.38252,11.90232 -16.46039,4.07459 -33.00815,7.76437 -49.4651,11.85645 -8.95422,2.24579 -7.79355,1.89341 -15.93971,4.14324 -1.57393,0.4347 -3.14568,0.87752 -4.7133,1.33446 -0.60243,0.1756 -2.29696,0.94136 -1.79634,0.56302 19.79838,-14.9624 12.17408,-12.71861 25.27013,-15.21127 34.13214,-5.47421 68.10868,-11.82521 102.04691,-18.3791 19.49552,-4.29204 39.42746,-7.83273 58.28091,-14.61854 1.83899,-0.6619 7.05682,-3.33744 5.37705,-2.33824 -5.87092,3.4923 -11.98619,6.55642 -17.97929,9.83463 -0.69217,0.39719 -1.28767,1.07074 -2.07651,1.19157 -2.21401,0.33913 -4.48137,0.0303 -6.71771,0.15549 -3.44748,0.19297 -6.88651,0.5159 -10.3278,0.79861 -14.1355,1.16128 -28.20826,2.71498 -42.29673,4.34114 -4.96789,0.55315 -9.93435,1.11932 -14.90366,1.65947 -29.9281,3.2531 1.2169,-0.26874 -25.66827,2.8881 -6.63272,0.77881 -13.18758,1.59857 -19.86492,1.66826 -0.4957,-0.24557 -1.4019,-0.19012 -1.4871,-0.73671 -0.17664,-1.13316 -0.10688,-2.70513 0.8527,-3.3332 7.43315,-4.86514 15.51885,-8.66754 23.48627,-12.59712 2.04348,-1.00786 4.3055,-1.49476 6.47806,-2.18146 5.84272,-1.84676 11.73853,-3.52119 17.60671,-5.2854 9.98949,-3.30436 20.23082,-5.7341 30.37301,-8.50534 5.85427,-1.59962 11.67044,-3.07318 17.24067,-5.48865 -9.84736,-16.75057 -12.92868,11.57953 -20.94331,11.83531 -1.9524,0.0623 -3.89218,-0.34508 -5.84243,-0.45568 -2.85132,-0.1617 -5.70559,-0.27136 -8.56007,-0.36109 -11.09034,-0.34862 -11.55919,-0.24283 -23.21131,-0.21608 -13.48089,0.11727 -26.96129,0.35442 -40.43648,0.76914 -7.76094,0.23885 -15.46173,0.63168 -23.22271,0.37887 -0.5877,-0.2532 -2.26765,-0.366 -1.7631,-0.75961 6.63529,-5.17639 13.56679,-10.03332 20.897,-14.16734 1.82125,-1.02713 4.11613,-0.73853 6.17545,-1.1007 3.15575,-0.55499 6.31369,-1.0975 9.46976,-1.65075 15.12394,-2.6512 9.20963,-1.5943 25.05074,-4.54567 18.96887,-3.64942 38.24173,-5.56177 57.20379,-9.22341 0.49035,-0.21393 1.90206,-0.95872 1.47106,-0.64179 -6.2679,4.60895 -12.45024,9.35891 -19.01148,13.53971 -0.66787,0.42557 -1.58525,0.0184 -2.37418,0.0872 -1.43308,0.12496 -2.85645,0.3445 -4.28721,0.49366 -14.43417,1.50486 3.02206,-0.4604 -13.1964,1.40661 -14.13919,1.26133 -28.1277,3.77281 -42.20733,5.51715 -0.79636,0.0176 -1.62599,0.2813 -2.3891,0.0529 -1.41839,-0.42457 -1.62646,-3.00604 -0.46227,-3.7723 14.90187,-9.80825 19.05131,-11.92214 32.81584,-15.14849 14.61283,-3.32846 29.28695,-6.51475 43.40754,-11.60281 1.08485,-0.54463 4.30624,-2.24003 3.25454,-1.63387 -6.05987,3.49271 -12.28733,6.6948 -18.28337,10.29599 -0.29008,0.17422 -0.0747,0.86899 -0.40758,0.92971 -0.97246,0.17738 -1.96189,-0.25582 -2.94847,-0.31754 -3.77133,-0.23593 -7.12201,-0.17228 -10.93181,-0.17759 -11.76026,0.61962 -23.43589,2.19936 -35.16223,3.20059 -8.53931,-2.84938 -3.20823,-0.7734 18.71587,-14.23687 0.95791,-0.58825 2.24616,-0.12798 3.36193,-0.26475 1.72974,-0.21204 3.44659,-0.5185 5.16939,-0.78103 9.92206,-1.51198 3.98656,-0.67016 14.75797,-2.09816 6.79197,-1.48856 14.06501,-1.71777 20.65922,-4.12254 0.77651,-0.28318 2.80557,-1.74898 2.10853,-1.30481 -20.99821,13.38069 -12.02088,13.33025 -24.27034,12.13108 -2.58984,-0.0344 -5.18098,-0.19219 -7.76951,-0.1032 -6.76647,0.23264 -16.04419,1.27649 -22.59126,2.1183 -13.81432,1.77623 -27.51354,4.11345 -41.19868,6.67782 -7.39908,1.57714 -12.68638,2.56033 -19.78743,4.54147 -1.82555,0.50932 -6.99539,2.78423 -5.41235,1.74209 5.51844,-3.63286 11.81119,-5.98331 17.34281,-9.59606 4.9648,-3.24255 -9.26541,-1.84988 4.18825,-1.95681 2.14921,-0.15003 4.30442,-0.2304 6.44763,-0.4501 1.79793,-0.18429 16.18738,-2.11564 17.46661,-2.27675 8.99754,-1.13316 17.9969,-2.14238 27.0291,-2.94634 3.17414,0.31229 9.57057,-1.65404 12.7591,-0.16281 0.96459,0.45113 1.89049,2.70479 0.67434,3.51337 -6.80245,4.52274 -14.23509,8.01723 -21.35264,12.02585 -5.33714,1.48162 -10.4626,3.57426 -15.5198,5.80232 -8.66107,4.67277 8.17282,-4.39275 17.00959,-9.78311 1.02702,-0.62647 -2.11038,-0.0773 -0.47125,-1.90629 0.0335,-0.0374 4.4324,-0.95639 4.44597,-0.95925 8.83915,-1.83668 17.74818,-3.32034 26.62826,-4.94584 -4.51148,2.70176 4.20648,-1.49687 3.28864,-0.83589 -6.41835,4.62216 -12.72561,9.42139 -19.41583,13.64046 -0.83045,0.52371 -1.94072,0.29894 -2.91227,0.44035 -8.12012,1.18194 -2.01772,0.20188 -11.68512,1.85913 -17.06793,3.07668 -33.99834,6.79156 -50.42972,12.38526 -1.23843,0.56695 -4.88894,2.39201 -3.71529,1.70085 6.03303,-3.39048 12.06606,-6.78095 18.09908,-10.17142 0.0937,-0.72161 -0.34176,-1.7887 0.28116,-2.16481 1.22907,-0.74209 2.84372,-0.39858 4.26772,-0.58175 8.46448,-1.08878 7.57757,-0.9351 16.9958,-1.92898 18.64899,-2.00026 37.23005,-5.01264 55.95218,-6.2848 0.44899,0.33888 1.79505,0.67657 1.34696,1.01663 -6.80937,5.16771 -13.93994,9.94949 -21.36895,14.17829 -1.76295,1.00352 -3.95088,0.92271 -5.93134,1.36181 -2.86641,0.63551 -5.73468,1.26313 -8.60897,1.86197 -6.31033,1.31472 -17.52171,3.51186 -23.60434,4.71408 -12.98682,2.40793 -25.83057,5.53338 -38.60115,8.88847 -7.0789,1.85976 -14.10292,3.72727 -20.9122,6.41059 -0.47899,0.32579 -1.91526,1.30422 -1.43699,0.97737 6.68887,-4.57128 13.00276,-9.74723 20.06881,-13.71063 1.55773,-0.87374 3.56018,-0.30536 5.33121,-0.53644 2.92025,-0.38104 5.82981,-0.8411 8.73893,-1.29944 7.66516,-1.2077 17.94027,-2.98438 25.4298,-4.25926 23.35174,-3.54064 46.67048,-7.61166 70.15568,-10.20551 0.54488,0.1694 2.08774,0.16138 1.63463,0.5082 -6.70916,5.13537 -13.63721,10.0347 -20.94608,14.27327 -1.73019,1.00337 -3.91533,0.82097 -5.8634,1.27414 -2.83152,0.65869 -5.65322,1.35912 -8.47429,2.06119 -3.37742,0.84052 -6.7473,1.71103 -10.12095,2.56654 -3.6215,0.90061 -7.24299,1.80123 -10.86449,2.70184 -3.56197,0.95197 -7.13871,1.85029 -10.6859,2.85591 -5.36707,1.52156 -11.52598,3.45706 -16.84486,5.33495 -1.81696,0.6415 -3.64634,1.26125 -5.40791,2.0421 -1.04577,0.46356 -3.98184,2.25402 -2.99168,1.68121 6.19681,-3.58487 12.40789,-7.145 18.61183,-10.71751 0.47698,-0.2878 0.87439,-0.83893 1.43093,-0.8634 1.9843,-0.0873 3.95234,0.40754 5.93415,0.53957 3.42807,0.22839 6.85799,0.46306 10.29276,0.54151 16.33826,0.3732 32.55212,-0.72611 48.83208,-1.92598 14.48676,-1.61515 29.0565,-3.07276 43.36649,-5.95032 2.33487,-0.46951 4.70058,-0.89552 6.93423,-1.72187 0.84161,-0.31136 2.91318,-2.08834 2.13888,-1.63476 -7.38092,4.32365 -14.6496,8.83612 -21.97441,13.25418 -3.34699,0.14006 -6.70231,0.14574 -10.04097,0.42018 -12.07553,0.9926 -24.51963,2.7996 -36.41737,4.83595 -15.80869,2.70572 -32.47915,6.08859 -48.04514,9.88765 -8.01681,1.9566 -15.95161,4.23509 -23.92742,6.35264 -18.34338,5.51087 -36.52658,11.81488 -53.76787,20.22558 -3.30278,1.61118 -13.12292,6.57046 -9.69211,5.25372 14.17154,-5.43902 12.17507,-11.65554 13.72042,-5.13406 1.65626,0.37662 3.28413,0.91299 4.96877,1.12986 14.5015,1.86677 29.37357,0.77533 43.86951,-0.38278 16.66097,-1.33107 24.9849,-2.50469 41.66194,-4.51079 17.93394,-2.11777 35.82833,-4.6096 53.60808,-7.78209 7.51962,-1.34175 14.93336,-2.81283 22.25068,-4.98834 -7.60274,0.30989 -13.60514,11.83919 -22.06285,13.60631 -2.45215,0.51235 -4.96139,0.69818 -7.43887,1.06919 -3.31605,0.49659 -6.63248,0.99206 -9.94149,1.53356 -11.55825,1.89144 -11.74972,2.02564 -23.4263,4.31323 -9.31349,2.28611 -18.64231,4.70558 -27.58848,8.20813 -1.44252,0.56476 -5.57092,2.69447 -4.24204,1.89828 19.24376,-11.52969 16.62046,-3.41402 18.90917,-12.87068 17.73435,-3.22832 35.28655,-7.39574 52.39742,-13.07586 -6.55122,4.99906 15.28369,-7.29663 11.55195,-5.29301 -5.72282,3.07266 -11.38452,6.25886 -17.12349,9.30123 -0.22208,0.11773 -0.48572,0.19427 -0.73551,0.16626 -1.38389,-0.15523 -2.74456,-0.47369 -4.11684,-0.71054 -2.53398,-0.27681 -5.06797,-0.55361 -7.60195,-0.83042 -25.90654,-2.17401 -51.8695,-1.04901 -77.79215,-0.0181 -2.14844,0.0926 -12.75251,0.62594 -15.82258,0.52077 -1.32536,-0.0454 -2.70023,-0.0355 -3.94921,-0.48126 -2.55857,-0.91317 -1.40207,-3.64365 0.546,-4.81192 7.92883,-4.75496 16.46255,-8.41953 24.69383,-12.62929 18.1797,-5.38722 36.58224,-10.00183 54.71877,-15.53347 1.38443,-0.52665 5.41557,-2.35493 4.15328,-1.57995 -5.75259,3.53179 -11.97983,6.25982 -17.67586,9.88211 -0.43602,0.27728 0.21635,1.34031 -0.26536,1.52728 -1.25529,0.48721 -2.69387,0.0479 -4.03705,0.14261 -7.65202,0.53978 -9.48437,0.93478 -17.69834,2.03165 -23.22599,3.03572 -46.21781,7.59471 -68.88005,13.49343 9.69007,-6.30449 -7.60708,2.95079 -5.93313,1.74728 6.70385,-4.81985 13.17725,-10.02151 20.31339,-14.17459 1.44335,-0.84 3.32523,-0.32194 4.98016,-0.54573 2.37576,-0.32126 4.73949,-0.72603 7.10923,-1.08904 2.94121,-0.38753 5.88242,-0.77506 8.82363,-1.16258 8.3423,-0.96961 16.69781,-1.97064 24.95649,-3.5246 1.56047,-0.29362 3.13043,-0.56786 4.65459,-1.01308 0.71261,-0.20816 2.61964,-1.37527 2.02058,-0.93679 -6.28299,4.59877 -12.73603,8.96058 -19.10405,13.44087 -17.08145,2.43625 -33.89795,6.35572 -50.85755,9.4859 -13.0648,3.11304 -26.87582,4.38617 -39.35364,9.65243 6.53189,-4.45132 12.87709,-9.18976 19.59567,-13.35396 0.74028,-0.45883 1.71937,-0.28127 2.58317,-0.3926 1.26901,-0.16355 2.54725,-0.25264 3.81413,-0.43189 5.6113,-0.79393 11.20031,-1.81815 16.80017,-2.69232 4.24464,-0.77838 8.58947,-1.10287 12.80747,-2.04231 0.53579,-0.11933 2.02232,-0.80506 1.57159,-0.49177 -19.46242,13.52766 -11.87615,13.44038 -21.9802,12.93987 -6.45203,-0.49697 -12.98779,0.4932 -19.3563,-0.8065 -2.28728,-0.36966 -4.057,-3.66573 -1.55734,-5.22812 14.86755,-9.29284 14.89316,-9.22816 24.12826,-13.81076 7.95584,-3.87769 16.06519,-7.41418 24.15253,-11.0063 1.09722,-0.46128 5.48252,-2.27142 6.77875,-2.92973 0.63632,-0.32316 2.44914,-1.46632 1.83033,-1.11078 -6.22414,3.57613 -12.63059,6.85703 -18.64684,10.77282 -2.85555,1.85859 3.52148,0.87103 -0.8156,1.29696 -5.84468,0.1535 -11.58118,1.3604 -17.39708,1.8332 -0.52328,0.0311 -1.07925,0.27816 -1.56983,0.0934 -0.41742,-0.15718 -1.22958,-0.7447 -0.87367,-1.01353 6.39871,-4.83315 13.15273,-9.19146 19.97135,-13.41155 0.40509,-0.25072 8.4907,-1.59565 9.06873,-1.69811 6.64641,-1.18264 13.39295,-1.52152 20.09949,-2.18501 0.29899,-0.06 1.1487,-0.35224 0.89698,-0.18009 -6.65007,4.54785 -13.17364,9.31721 -20.14994,13.34681 -0.81113,0.46852 -1.87222,-0.0981 -2.80885,-0.0855 -4.16164,0.0557 -8.32644,0.43397 -12.46453,0.83551 -4.79689,0.40452 -9.57278,1.05682 -14.3272,1.8051 -2.53985,0.39974 -5.01322,1.12334 -7.58095,0.78226 -0.29149,-0.87987 -1.62493,-2.09561 -0.87447,-2.63962 6.60204,-4.78578 14.02449,-8.3383 21.24508,-12.12693 0.90007,-0.47226 8.01193,-1.57209 8.21633,-1.61008 13.45261,-2.5007 -2.1887,0.16313 12.75331,-2.30839 7.07917,-0.91695 14.154,-1.86621 21.16293,-3.23329 3.69957,-0.7216 7.40031,-1.41193 10.87174,-2.89641 -6.36656,3.83402 -12.73312,7.66804 -19.09968,11.50206 -0.24816,0.3627 -0.32703,0.95071 -0.74448,1.0881 -1.03188,0.33963 -2.16683,0.16 -3.2511,0.227 -1.65765,0.10244 -3.31816,0.15951 -4.97451,0.28133 -6.98663,0.51382 -6.10598,0.52141 -13.37889,1.56233 -11.50292,1.68429 -23.01813,3.46533 -34.30059,6.30902 -0.45345,0.16712 -1.75017,0.78701 -1.36037,0.50135 18.5931,-13.62541 13.24948,-13.27286 27.29551,-14.22451 1.938,-0.34804 4.0631,0.0228 5.98573,-0.47013 0.13178,-0.0338 0.40407,-0.36264 0.29302,-0.28407 -19.50096,13.79638 -11.25281,13.7709 -20.32385,13.517 -5.1747,0.57269 -10.37757,0.90421 -15.5746,1.21217 -3.96845,0.11351 -6.64751,-1.61456 -7.70356,-5.42194 -0.40627,-2.5877 0.69711,-4.8668 1.50142,-7.23922 2.91533,-8.9693 3.54679,-4.67733 21.42489,-10.93665 0.0937,-0.0328 -0.43838,0.9661 -1.57838,3.14497 -2.16651,4.24351 -4.45871,8.4182 -6.58871,12.68098 -1.60444,3.10186 -2.32747,6.45665 -2.6617,9.90032 -0.0506,0.86424 -0.13264,1.78918 -0.0935,2.66189 0.009,0.20741 0.23501,0.79637 0.16939,0.59939 -0.14169,-0.42525 -0.10131,-1.44863 -0.50191,-1.24754 -6.65122,3.33884 -12.87765,7.46409 -19.31648,11.19614 0.11315,-0.19077 0.26262,-0.36425 0.33946,-0.57233 0.19532,-0.52886 0.32038,-2.2879 0.34673,-2.30011 21.11451,-9.77802 24.35689,-14.95918 19.57558,-7.88639 -1.95047,4.10097 -3.84725,8.20097 -5.43238,12.45811 -1.29573,3.26507 -2.87893,6.42013 -5.13719,9.12388 -6.42517,6.43419 -15.00519,9.5982 -23.14794,13.86573 -0.20728,0.10864 -0.46641,-0.16084 -0.612,-0.34407 -0.34341,-0.43221 -0.53957,-0.96323 -0.80936,-1.44485 -0.0658,-0.20799 -0.38895,-0.51961 -0.19738,-0.62397 21.04755,-11.46679 19.38301,-16.57819 22.42797,-3.1682 0.88515,4.15168 1.25589,8.31549 0.84113,12.53579 -0.16022,0.0981 -0.22322,3.11937 -0.30088,3.00597 -0.17644,-0.25763 -0.0645,-1.00218 -0.34737,-0.86998 -18.99471,8.87698 -24.08537,16.40731 -19.06384,9.29058 3.14706,-5.01863 7.52004,-9.01364 11.87609,-12.95485 9.79895,-9.07777 20.71576,-17.6787 33.64056,-21.87147 3.7604,-0.37 4.93626,2.81502 5.45295,5.93104 0.48513,2.63323 -0.90766,4.95337 -1.32567,7.43498 -0.13173,-0.43577 -0.39401,-0.85205 -0.3952,-1.30729 -9.3e-4,-0.35405 0.25946,-0.65885 0.38918,-0.98828 -5.93556,3.40043 -11.83522,6.86432 -17.80668,10.2013 -0.69861,0.3904 1.31816,-0.90793 1.98042,-1.35724 2.04623,-1.38823 3.12127,-2.09424 5.22365,-3.4906 11.04346,-7.18697 21.79493,-15.51685 34.33544,-19.8238 4.32453,-1.45919 7.10373,1.67795 9.67854,4.68431 2.83411,3.47059 4.64047,7.47187 5.69854,11.79128 0.14573,0.48363 0.26577,0.97576 0.43718,1.4509 0.39239,1.08767 0.66838,1.23308 0.68339,1.11971 1.12263,-8.47899 -24.67629,17.2063 -18.68836,8.70124 1.55886,-3.07935 2.79835,-6.28315 4.63546,-9.21543 7.00512,-7.95144 17.48669,-15.51013 28.3162,-14.56293 3.80427,0.75132 6.98036,2.58551 9.54915,5.43791 2.14037,2.34931 3.70514,2.78202 6.49015,1.30167 6.43835,-4.20717 16.52261,-9.34907 -14.50359,8.16684 -1.3964,0.78834 2.67854,-1.76723 4.06672,-2.56998 7.11223,-4.11286 14.24875,-8.18359 21.37312,-12.27539 3.92702,-1.74947 7.86179,-3.54809 12.10622,-4.34519 4.49366,-0.14049 8.68348,1.88703 12.80766,3.43741 3.48072,1.45291 6.04694,1.62215 9.67224,1.12879 3.31732,-0.41766 6.66861,-0.46309 10.00743,-0.52892 4.41501,0.41461 6.42816,1.56695 9.28993,4.82087 0.40051,0.40702 0.80101,0.81404 1.20151,1.22107 0,0 -19.26906,11.77651 -19.26906,11.77651 l 0,0 c -0.41205,-0.42513 -0.8241,-0.85027 -1.23615,-1.27541 -2.2678,-2.32987 -4.87015,-3.39252 -8.18462,-3.24535 -3.35451,0.11646 -6.70184,0.33123 -10.03591,0.72787 -3.52512,0.16899 -6.83062,-0.75043 -10.08456,-2.0877 -3.86134,-1.47144 -7.88559,-3.21524 -12.08623,-2.31117 -4.02513,1.15672 -7.91045,2.80212 -11.61927,4.74281 5.66131,-3.283 11.32637,-6.55957 16.98394,-9.84901 1.36502,-0.79365 -2.68242,1.66696 -4.04111,2.47138 -6.55686,3.882 -15.90037,10.50682 -24.38782,13.85097 -3.26054,0.42437 -5.77441,-0.91628 -7.88671,-3.40485 -2.27087,-2.35093 -5.12133,-3.80066 -8.44349,-3.94397 -1.64551,0.16094 -1.90755,0.0847 -3.43097,0.60641 -0.4567,0.15641 -1.74451,0.8205 -1.33016,0.57278 32.35034,-19.34076 21.64957,-13.3341 15.39565,-8.8296 -2.19573,2.59553 -3.44394,5.74305 -4.62736,8.90178 -4.02966,9.55935 -20.87475,20.72743 -23.03478,8.69216 -0.806,-4.00839 -2.32675,-7.73365 -5.08486,-10.8262 -2.69816,-2.90832 -4.17204,-4.07805 -8.10913,-2.46468 -6.97563,2.96864 -17.76787,9.63965 12.52229,-7.73367 0.92684,-0.5316 -1.82418,1.11372 -2.71802,1.69911 -1.94154,1.27157 -3.79818,2.67031 -5.77767,3.88543 -1.6585,1.14311 -3.37795,2.19616 -5.03503,3.34133 -0.63376,0.43797 -1.17628,1.00616 -1.83676,1.40268 -6.93653,4.16437 -13.84462,8.38583 -20.94081,12.2719 -0.39885,0.21842 -0.96978,0.17066 -1.36301,-0.0577 -0.52776,-0.30654 -0.77758,-0.94095 -1.16637,-1.41142 -0.39129,-2.64409 1.5832,-4.692 1.54533,-7.35414 -0.28518,-2.49636 -0.27653,-3.63513 -3.10174,-2.59431 -7.31969,3.5356 -4.62692,2.28967 15.16715,-9.03519 0.86114,-0.49269 -1.68335,1.053 -2.4895,1.6313 -2.91706,2.09258 -5.53685,4.55672 -8.13646,7.02104 -4.22027,3.66269 -8.51052,7.39484 -11.55387,12.12165 -4.82702,8.80304 -24.31836,20.27814 -21.35404,7.77047 0.56492,-4.01585 0.65804,-7.93321 -0.35194,-11.91725 -3.03706,-13.17646 -6.10293,-3.63807 17.86529,-17.77425 0.0756,-0.0446 -0.15127,-0.0891 -0.2269,-0.13369 -0.19911,-0.26711 -0.44329,-0.50592 -0.59731,-0.80132 -0.0438,-0.0839 0.11493,-0.3284 0.0325,-0.282 -32.9331,18.52696 -22.66011,13.86286 -15.8639,8.79738 2.52955,-2.37537 4.27141,-5.26592 5.72761,-8.41253 1.60341,-4.21216 3.26951,-8.36764 5.11099,-12.47927 2.60533,-8.86456 0.11806,-1.63991 21.62355,-11.60725 0.14995,-0.0695 -0.10459,0.31458 -0.13538,0.47695 -0.0559,0.295 -0.0946,0.59336 -0.12418,0.89215 -0.0499,0.50404 -0.10156,1.62524 -0.12849,2.15298 -6.59673,4.04201 -12.94986,8.51151 -19.79018,12.12601 -0.72118,0.38108 -1.66853,-2.66699 -1.69528,-3.00767 -0.0733,-0.93376 0.28977,-1.87127 0.13283,-2.80675 0.25187,-3.70066 0.82189,-7.35839 2.44932,-10.73827 2.07412,-4.26013 4.42077,-8.37992 6.48766,-12.64174 0.15764,-0.33555 1.23953,-2.73713 1.46116,-2.85196 48.1502,-24.94831 23.30808,-15.00603 19.757,-8.39241 -0.53852,2.1767 -1.69714,4.06082 -1.93055,6.28858 -0.008,2.94648 3.48245,2.88687 5.6545,2.84304 5.31536,-0.29112 10.60743,-0.81404 15.91021,-1.24004 8.93198,0.13114 2.38781,-0.27377 -16.29399,13.66526 -0.089,0.0664 -0.18717,-0.14152 -0.29798,-0.14917 -0.42607,-0.0294 -0.85391,0.0225 -1.28063,0.0402 -0.65472,0.0272 -1.30947,0.0551 -1.96357,0.0945 -0.83293,0.0502 -1.66483,0.11618 -2.49725,0.17427 -2.35482,0.20796 -4.71935,0.53303 -7.07772,0.68254 -0.57733,0.0366 -2.17376,0.40013 -1.73533,0.0227 15.66211,-13.48183 10.3456,-12.38131 18.70533,-13.80876 11.148,-1.89302 22.27021,-3.94026 33.47302,-5.50156 6.3787,-0.92159 12.77259,-1.83637 19.21405,-2.20981 1.29707,-0.0752 2.63609,-0.38821 3.89703,-0.075 1.0635,0.26414 3.6217,1.02095 2.79154,1.73624 -5.7818,4.9818 -12.81987,8.28502 -19.2298,12.42752 -10.29131,2.38295 -20.83756,3.40962 -31.24723,5.11973 -6.04407,1.13928 -12.2018,2.16977 -18.135,3.82748 -1.19869,0.33491 -4.56542,1.9038 -3.53242,1.20959 17.52565,-11.77783 22.39682,-5.64044 15.83716,-12.37428 6.83914,0.0498 14.06887,-2.28275 20.95266,-2.38695 4.31299,-0.39997 8.62254,-0.77652 12.95396,-0.91229 1.01595,-0.0318 3.76779,-0.75462 3.04912,-0.0358 -13.68816,13.6905 -9.47915,13.65642 -17.1891,13.42643 -6.55716,0.24092 -13.10399,0.87823 -19.55149,2.12279 -2.36762,0.50906 -4.63903,0.94792 -6.96177,1.62496 -0.78452,0.22868 -2.96915,1.28916 -2.31959,0.79334 5.69294,-4.34548 11.84964,-8.06023 17.53896,-12.41045 1.21937,-0.93237 -4.12415,-0.55946 0.76401,-0.60418 5.99147,-0.46183 11.94065,-1.93014 17.97441,-1.46175 0.61547,0.23767 1.3499,0.27854 1.84642,0.713 7.51612,6.57669 -19.28038,14.07146 -26.74793,17.79033 -8.18447,3.60497 -16.35577,7.2387 -24.32234,11.31082 -9.67276,5.17629 1.77249,-0.89658 14.18968,-8.53233 0.41933,-0.25786 -0.91988,0.38848 -1.4093,0.4414 -0.29348,0.0317 -0.56872,-0.18446 -0.8637,-0.19563 -0.0679,-0.003 0.0776,0.11156 0.11641,0.16733 0.37583,0.13223 0.75166,0.26445 1.12748,0.39668 6.32578,1.03295 12.77686,0.2627 19.15434,0.61953 9.85024,0.72932 4.57476,-0.28976 -14.23955,13.8045 -0.41131,0.30812 -8.12629,1.00375 -8.34747,1.03381 -1.75012,0.23783 -3.49752,0.49533 -5.24628,0.74299 -7.08013,1.12354 -14.14873,2.70899 -21.2768,3.4852 -10.82592,1.17888 -0.17821,-2.19623 13.50456,-13.41853 12.419,-3.34594 25.09528,-5.52347 37.71151,-7.97724 17.78465,-3.36572 35.38329,-7.75733 53.26853,-10.52643 -5.74463,4.53563 -11.3347,9.27418 -17.23387,13.6069 -0.46709,0.34306 -1.13858,0.21822 -1.7112,0.30751 -1.41477,0.22061 -2.83182,0.42682 -4.25031,0.62209 -8.16462,1.12396 -16.35165,2.07903 -24.51895,3.18274 -9.58668,1.51572 -7.79758,1.15789 -16.66276,2.82145 -1.82828,0.34308 -6.67069,2.4917 -5.4782,1.06402 11.69652,-14.00335 10.26379,-12.06229 20.27926,-13.93336 22.69372,-4.91049 45.44992,-9.54133 68.43158,-12.9181 4.16489,-0.64862 14.3354,-2.37556 19.06114,-2.63766 1.73984,-0.0965 3.60218,-0.42529 5.22317,0.21407 1.14651,0.45221 3.37991,2.03106 2.41591,2.79898 -11.82263,9.41795 -14.753,9.99261 -24.4611,12.90401 -18.33951,4.89326 -36.7441,9.61862 -54.73736,15.70012 4.34905,-2.85732 9.19338,-5.07524 13.04714,-8.57195 0.8093,-0.73432 -2.17167,-0.32821 -3.26421,-0.30458 -0.12509,0.003 -0.0971,0.33875 0.0228,0.37467 1.05379,0.31586 2.14874,0.5066 3.24447,0.60463 1.98496,0.17759 3.98188,0.19462 5.97461,0.22018 2.91507,0.0374 5.83059,-0.0209 8.74589,-0.0313 26.21263,-0.423 52.4294,-1.44986 78.6437,-0.29851 2.35873,0.16856 10.84067,0.28358 13.75053,1.94947 1.07967,0.61811 3.16712,2.17509 2.2297,2.99301 -9.41598,8.21573 -19.97641,13.40235 -31.43552,17.31052 -17.79825,5.49648 -35.95342,9.81304 -54.15015,13.75759 -1.19294,-0.75031 -4.64979,-1.33489 -3.57883,-2.25092 14.4564,-12.36508 32.76113,-16.13235 50.55316,-20.4072 11.40038,-2.25157 22.82495,-4.32069 34.24946,-6.44231 2.73699,-0.50828 5.43832,-1.24003 8.20254,-1.56956 1.69791,-0.20241 6.34519,-1.22253 5.12975,-0.0198 -5.30963,5.25413 -12.16715,8.66908 -18.25072,13.00362 -24.04478,4.17495 -48.30581,6.99913 -72.52141,9.96339 -20.43124,2.48843 -40.88655,5.11795 -61.44251,6.37579 -5.45162,0.33358 -21.17119,1.1176 -27.60184,-0.0246 -2.43547,-0.43256 -4.60558,-1.80642 -6.90837,-2.70964 -2.07346,-12.62438 -1.91865,-4.0418 21.9138,-18.15191 2.87191,-1.70033 5.9123,-3.10652 8.95169,-4.48532 16.7888,-7.61615 34.35264,-13.36887 52.02954,-18.51664 7.94699,-2.06992 15.86089,-4.27136 23.84098,-6.20977 32.55357,-7.90748 65.62234,-14.35781 98.95815,-17.79153 -4.44983,4.55599 -8.70854,9.30682 -13.3495,13.66797 -0.41886,0.39361 -1.10112,0.33941 -1.66654,0.44274 -2.0395,0.37268 -4.08847,0.69486 -6.14147,0.98405 -13.97752,1.96891 -28.03027,3.3746 -42.06995,4.80424 -16.79255,1.29978 -33.55499,2.54279 -50.40262,2.83044 -0.1735,0.003 -15.97168,0.18214 -18.15199,-0.35052 -1.38076,-0.33733 -2.42086,-1.49017 -3.63129,-2.23525 6.46534,-4.2419 12.84408,-8.61883 19.39603,-12.72569 1.22447,-0.76752 7.42621,-2.69445 7.73597,-2.79213 8.88473,-2.80165 17.88075,-5.23881 26.90476,-7.54594 11.73496,-3.00441 9.93659,-2.49811 21.41404,-5.61369 2.99976,-0.81429 6.00527,-1.60872 8.9917,-2.47061 2.13895,-0.61731 7.86124,-3.63083 6.38267,-1.96649 -12.56178,14.14003 -9.94393,15.58776 -15.84484,11.95332 -7.73824,0.18632 -15.37874,1.11967 -23.05939,2.07705 -15.08069,1.87977 -30.12516,4.07212 -45.06259,6.88704 -11.95528,2.24395 -23.89715,4.72583 -35.89956,6.71159 -2.06211,0.34117 -7.46252,2.53971 -6.2103,0.86621 8.90679,-11.90331 9.47928,-11.90189 16.87359,-13.99138 19.01074,-5.73408 38.62776,-9.39793 57.97404,-13.76188 11.16323,-2.37862 22.44822,-4.54552 33.432,-7.69077 2.14298,-0.61365 7.89981,-3.69165 6.35365,-2.08595 -11.47868,11.92075 -22.00528,11.15563 -15.18482,11.60674 -6.66208,-0.10935 -13.24202,0.56249 -19.8692,1.23898 -11.6234,1.18649 -23.21625,2.64811 -34.77852,4.32783 -37.04365,5.13838 12.12118,-1.77078 -18.01696,2.70813 -1.7251,0.25638 -3.49176,1.02576 -5.19276,0.64067 -1.22971,-0.27839 -3.83817,-1.6598 -2.86845,-2.46562 10.46096,-8.6929 14.527,-9.91792 23.63672,-13.19792 16.58026,-4.91809 33.45895,-8.61816 50.40728,-12.02586 4.09883,-0.80231 8.34511,-1.66563 12.47718,-2.37058 1.15821,-0.19759 4.33432,-1.34348 3.48443,-0.53219 -15.54621,14.84003 -10.36086,12.48247 -19.89084,13.91087 -8.96936,1.37421 -17.89484,3.0421 -26.73192,5.10858 -0.47047,0.0893 -4.42148,0.98862 -5.27364,0.6683 -1.74254,-0.655 -2.51771,-2.7112 -2.11866,-2.97168 6.54766,-4.27388 13.49848,-7.89636 20.29037,-11.77039 0.47442,-0.2706 1.00016,-0.43917 1.50024,-0.65875 5.09766,-2.15416 10.36414,-3.84645 15.51895,-5.85141 -5.79739,3.41132 -11.92595,6.31385 -17.39217,10.23396 -0.18225,0.1307 2.12887,1.11392 2.00733,1.09486 -3.73997,-0.58668 -7.46363,-0.56599 -11.26048,-0.20232 -17.3463,1.25396 -34.46685,4.18752 -51.74319,6.03584 -1.60129,-0.0192 -3.30539,0.50739 -4.80385,-0.0575 -1.17935,-0.4446 -3.59453,-1.95151 -2.60882,-2.73695 6.23857,-4.97112 13.70858,-8.1871 20.82957,-11.78201 1.49882,-0.75664 3.25216,-0.83886 4.89125,-1.20267 2.62285,-0.58216 5.25627,-1.11664 7.89251,-1.6348 3.64158,-0.71576 7.2935,-1.37788 10.94025,-2.06683 13.78252,-2.44953 27.58552,-4.78127 41.45173,-6.71725 7.34028,-1.02484 16.13569,-2.14672 23.61823,-2.57942 2.83418,-0.16389 5.67677,-0.11049 8.51515,-0.16574 12.4414,1.21947 8.09827,-0.53834 -11.06926,14.481 -1.05657,0.8279 -13.02823,2.5598 -13.60636,2.65706 -2.79479,0.47016 -5.59295,0.91997 -8.38943,1.37995 -6.95202,1.0688 -13.92383,2.12806 -20.80609,3.59983 -6.22406,1.33102 -33.5335,9.69079 13.68174,-12.06645 11.53367,-0.0751 22.96226,-2.0981 34.47709,-2.5852 3.14915,-0.0453 12.54925,-0.7538 15.4865,0.79718 0.98865,0.52205 3.13137,1.74251 2.27657,2.46313 -10.74478,9.05809 -14.01894,10.11958 -22.92829,13.58706 -14.24503,4.48568 -28.82922,7.6939 -43.30437,11.32908 -2.11021,0.60327 -4.24452,1.12786 -6.33063,1.80981 -1.61589,0.52823 -6.16543,2.78165 -4.76528,1.81744 5.22924,-3.60114 11.25176,-5.99108 16.34022,-9.78855 0.7122,-0.53151 -3.27209,-1.0293 -2.39486,-1.17151 0.61397,-0.0995 1.24353,0.0331 1.86529,0.0497 13.91408,-1.12267 27.6699,-3.65591 41.55188,-5.08183 6.15796,-0.80471 12.32266,-1.78975 18.49734,-2.45681 0.95396,-0.10306 3.57958,-0.82976 2.87285,-0.18076 -5.44175,4.9972 -11.53822,9.23782 -17.49497,13.60837 -0.31424,0.23057 -0.77752,0.0558 -1.16628,0.0836 -18.49237,2.00465 -36.95536,4.35449 -55.23647,7.83826 -4.03343,0.79042 -21.35436,4.17067 -25.74216,5.08353 -3.36689,0.70045 -6.73872,1.38533 -10.07817,2.20669 -2.25943,0.55573 -8.24474,3.67166 -6.71031,1.92255 12.75364,-14.53802 10.4852,-15.94995 16.21537,-11.60942 7.16604,0.81147 14.28864,0.69749 21.4999,0.63588 13.48156,-0.11519 26.96036,-0.42033 40.43809,-0.74902 11.04169,-0.21314 22.09119,-0.43484 33.13576,-0.23989 2.19956,0.0388 4.4337,-0.17233 6.59552,0.23526 1.51242,0.28515 5.34115,0.72578 4.248,1.80917 -5.41677,5.36842 -12.64905,8.52331 -18.97358,12.78497 -15.31655,4.79762 -31.25848,7.48883 -46.40772,12.88719 -3.92814,1.23468 -13.95664,4.34653 -18.11516,5.79911 -2.31398,0.80827 -8.76043,4.16615 -6.88095,2.59282 10.55329,-8.83426 20.8787,-7.32195 11.86364,-10.03586 -0.14418,-0.0434 0.25402,0.16179 0.38102,0.24268 6.06906,0.36696 12.04439,-0.17454 18.09987,-0.71578 13.30418,-1.18913 26.59595,-2.5563 39.86948,-4.04512 14.3969,-1.714 28.79303,-3.39541 43.20693,-4.9598 1.13558,-0.12325 16.09754,-2.00282 18.85408,-1.54041 1.6992,0.28503 3.05204,1.59971 4.57807,2.39957 -6.58316,4.22446 -12.99293,8.73214 -19.74946,12.67337 -1.6743,0.97666 -13.20665,3.90293 -13.29891,3.92638 -15.70819,3.99283 -31.573,7.35482 -47.49506,10.37199 -35.01858,6.77711 -70.11357,13.22368 -104.98851,20.70404 -2.08291,0.5604 -7.64787,3.32283 -6.24872,1.6812 4.50971,-5.29129 10.61276,-8.99069 16.10813,-13.24934 0.30888,-0.23938 0.78157,-0.0578 1.16442,-0.13607 1.42105,-0.29067 2.82999,-0.63786 4.24198,-0.96977 5.11558,-1.20249 10.21502,-2.47305 15.33451,-3.6591 16.9668,-4.17011 34.04499,-7.97489 50.78287,-13.00739 -44.03888,27.05193 -17.16751,3.22067 -14.43862,12.07682 0.1453,0.47153 -0.97649,-0.16395 -1.46975,-0.17556 -1.32366,-0.0311 -2.64836,0.008 -3.97178,0.0475 -6.22871,0.1873 -8.31538,0.38813 -14.95343,0.81629 -10.80156,0.69191 -21.5859,1.2745 -32.40008,1.71662 -5.43417,0.22216 -10.86192,0.82223 -16.29984,0.72924 -1.51243,-0.0259 -3.00632,-0.33837 -4.50948,-0.50755 5.87008,-4.55579 11.62442,-9.26475 17.61023,-13.66737 0.57423,-0.42235 1.32364,-0.53204 2.00026,-0.75632 1.5881,-0.52641 3.18291,-1.03464 4.79142,-1.49492 10.6067,-3.03515 21.38247,-5.44404 32.03617,-8.30054 12.55279,-3.18183 16.4837,-4.21296 29.09644,-7.27001 14.1635,-3.43291 28.50697,-6.38038 42.28996,-11.19144 -5.19496,3.51991 -10.61671,6.72637 -15.58489,10.55973 -0.34986,0.26994 1.65534,0.47355 1.21664,0.52653 -0.93457,0.11287 -1.86336,-0.3026 -2.80416,-0.3348 -7.29714,-0.24975 -14.56807,0.92432 -21.78212,1.79199 -9.11795,1.43338 -18.07265,3.05156 -27.02138,5.33249 -2.17742,0.555 -4.34437,1.15078 -6.5088,1.75447 -1.56086,0.43535 -5.90107,2.41203 -4.66647,1.36247 5.15643,-4.3836 11.12036,-7.71728 16.68054,-11.57592 -0.3133,-0.27726 -1.26883,-0.57328 -0.93989,-0.83178 0.51599,-0.4055 1.31338,0.0594 1.96865,0.0233 1.31934,-0.0727 2.63534,-0.20348 3.94863,-0.34922 7.3751,-0.81843 14.66113,-2.22397 21.93245,-3.67993 17.83981,-3.83382 35.58761,-8.15328 53.05125,-13.46247 1.76409,-0.57398 3.54566,-1.09675 5.29226,-1.72195 1.17432,-0.42035 4.43259,-2.19971 3.46494,-1.4127 -17.49603,14.23004 -10.67428,12.13921 -23.80168,12.47006 -25.51364,1.03733 -51.04163,2.97657 -76.20117,7.50202 -4.1496,0.84178 -8.31612,1.604 -12.44878,2.52534 -3.19778,0.71291 -11.1185,5.24571 -9.5373,2.37623 2.61036,-4.73712 9.25172,-5.69992 13.32786,-9.25512 0.61607,-0.53733 -2.62882,-1.03625 -2.44057,-0.24074 0.75921,3.20826 11.48026,-1.4683 9.65533,2.14451 32.43868,2.26244 64.99081,1.42496 97.47687,2.49024 12.72038,0.3584 25.51477,0.49682 38.20691,1.53449 2.12466,0.1737 4.37062,-0.048 6.35266,0.73673 1.30281,0.51583 4.04255,2.0415 2.98456,2.96023 -6.06607,5.26768 -13.77962,8.26467 -20.66943,12.397 -20.8653,8.04537 -43.05782,12.08551 -64.5528,18.0218 -22.15395,5.63553 -44.47511,10.81265 -66.17092,18.0731 5.46074,-4.39247 10.84239,-8.88512 16.38222,-13.17741 0.19429,-0.15054 0.4911,-0.0377 0.73263,-0.0833 0.86377,-0.16281 1.7254,-0.33903 2.58079,-0.54129 5.81717,-1.37549 11.53603,-3.13162 17.357,-4.49338 7.78952,-2.06669 15.57879,-4.04802 23.23948,-6.56423 2.1954,-0.7211 4.381,-1.47322 6.55205,-2.26459 1.71919,-0.62666 6.55719,-3.11704 5.11661,-1.98875 -5.11401,4.00538 -10.84724,7.14996 -16.27086,10.72494 0.4173,0.26173 1.67158,0.52729 1.2519,0.78518 -0.61572,0.37835 -1.4332,-0.23956 -2.15581,-0.22974 -1.69072,0.023 -3.37792,0.17667 -5.06202,0.32788 -11.86436,1.06524 -23.67025,2.7501 -35.45967,4.41985 -34.7835,5.08896 -69.50192,10.56583 -104.05018,17.09138 -3.64593,0.61684 -7.28865,1.25299 -10.93779,1.85054 -2.58775,0.42375 -5.15786,1.01426 -7.77251,1.2133 -1.59621,0.12151 -3.33458,0.39764 -4.79564,-0.25654 -0.82767,-0.37059 -1.94201,-1.89312 -1.21445,-2.43442 7.5983,-5.65314 17.22503,-10.41464 26.01591,-14.87513 21.86754,-10.93385 43.7765,-21.78532 65.66019,-32.68637 7.19608,-3.57744 15.00921,-7.40412 22.14734,-11.16102 2.83116,-1.49009 11.0911,-6.36459 8.431,-4.58702 -3.95932,2.64576 -8.20479,4.83655 -12.33952,7.19882 -1.3278,0.75861 2.61177,-1.59147 3.91766,-2.38721 7.26351,-4.16529 14.52702,-8.33058 21.79053,-12.49588 0.80577,0.40366 1.75155,0.60353 2.4173,1.21096 1.1369,1.03729 -0.37925,2.08578 -0.90656,2.62366 -2.56026,2.61156 -5.30939,5.04595 -7.68454,7.83947 -5.9756,6.88763 -11.16591,14.42366 -15.44925,22.48229 -1.26634,2.44564 -2.60849,4.9028 -3.77186,7.39942 -0.17106,0.36711 -0.05,0.96025 -0.41129,1.1433 -21.56756,10.9273 -23.01746,17.22194 -20.93069,9.1251 1.89376,-3.96992 2.4816,-8.3319 2.33054,-12.70981 -0.73518,-5.79968 -1.82586,-11.71175 -5.87515,-16.20221 -1.40224,-1.10418 -1.75277,-1.7497 -3.60253,-1.85544 -0.72578,-0.0415 -2.76614,0.67463 -2.16453,0.26654 5.24121,-3.55526 10.87198,-6.50015 16.26036,-9.82814 1.10918,-0.68506 -2.30989,1.21382 -3.4199,1.89754 -1.34403,0.82788 -2.62396,1.75558 -3.93594,2.63337 -9.43513,7.37511 -17.74551,16.0347 -25.4525,25.18699 -9.46349,10.48773 -8.01046,9.82734 -27.44045,18.25183 -0.59806,0.25932 -0.95362,-0.97049 -1.1254,-1.59931 -0.13459,-0.49266 0.18456,-1.0046 0.27684,-1.5069 2.78333,-6.02216 5.45817,-12.11899 7.68689,-18.3695 1.63847,-4.7555 3.52997,-9.83307 2.32556,-14.91304 -0.0785,-0.17684 -0.2702,-1.10253 -0.77009,-1.07824 -0.23098,0.0112 -0.84679,0.36569 -0.64826,0.24709 33.59145,-20.06759 20.58802,-13.49607 14.7378,-7.95635 -4.73919,5.48591 -8.7976,11.51884 -13.46686,17.06625 -5.33559,6.82338 -19.10481,22.49127 -25.05854,13.8497 -0.38785,-0.56295 -0.20769,-1.91021 -0.18504,-2.44776 0.0752,-4.11615 0.17516,-8.25199 0.81616,-12.32585 0.94322,-5.31527 2.48359,-10.48447 3.79348,-15.71627 1.38471,-4.98107 2.74635,-9.99351 3.68628,-15.07666 4.39915,-6.68151 0.10826,-0.29442 20.20374,-11.08299 0.30344,-0.1629 -0.69452,0.21724 -0.91322,0.4833 -0.76506,0.93072 -1.92424,4.07441 -2.19927,4.87474 -0.47131,1.37148 -0.8527,2.77223 -1.27905,4.15835 -2.43084,10.34727 -4.71557,20.90683 -4.08249,31.60369 0.0675,1.06067 0.11711,2.12265 0.20259,3.18203 0.0547,0.67744 0.27517,1.35005 0.21775,2.02726 -0.0112,0.13175 -0.26514,-0.17907 -0.38002,-0.11364 -29.07637,16.56175 -21.58437,17.08558 -17.80986,8.62752 1.87827,-5.45197 3.93308,-10.8409 5.95022,-16.24254 1.35413,-3.60224 2.18978,-7.2288 2.79462,-11.01332 0.95066,-7.97869 -0.0357,-0.76773 20.06218,-11.26512 0.29191,-0.15247 -0.49697,0.44169 -0.68453,0.71238 -0.62488,0.90184 -2.18524,3.964 -2.52126,4.5819 -0.70826,1.30241 -1.4365,2.59385 -2.15475,3.89078 -4.81383,9.01447 -9.85429,17.93475 -17.34613,25.0534 -7.65067,8.25715 -7.54457,7.01708 -24.15297,15.57973 -0.60375,0.31127 -2.25429,-1.21458 -2.47441,-1.48678 -0.31398,-0.38826 -0.4849,-0.87304 -0.72735,-1.30955 -0.83696,-4.25235 1.30973,-8.31376 2.76521,-12.21804 2.06065,-5.13243 3.76144,-10.48106 4.65545,-15.94473 0.17745,-0.99228 0.34103,-4.02612 0.58516,-4.16576 6.56088,-3.75286 13.31888,-7.1501 19.97832,-10.72516 -1.00196,0.17757 -0.50716,-0.0492 -1.35981,0.9039 -1.84355,3.01565 -3.72441,5.99708 -5.27413,9.19326 -1.90757,4.5581 -4.06568,8.99802 -5.93332,13.56672 -1.18116,3.40829 -2.5724,6.84678 -2.27133,10.5308 0,0 -20.30227,10.34452 -20.30227,10.34452 z"
     inkscape:connector-curvature="0"
     transform="scale(0.00195313,0.00195313)" />
  <text
     xml:space="preserve"
     style="font-size:72px;font-style:normal;font-weight:normal;line-height:125%;letter-spacing:0px;word-spacing:0px;fill:#ffffff;fill-opacity:1;stroke:none;font-family:Sans;filter:url(#filter3027)"
     x="219.3709"
     y="353.99161"
     id="text3023"
     sodipodi:linespacing="125%"
     transform="scale(0.00195313,0.00195313)"><tspan
       sodipodi:role="line"
       id="tspan3025"
       x="219.3709"
       y="353.99161">ettycoin</tspan></text>
</svg>
